<svg width="16" height="17" viewBox="0 0 16 17" fill="none" xmlns="http://www.w3.org/2000/svg">
<path d="M15.896 5.66244C15.9912 5.86804 15.9976 6.69444 11.9888 8.57604L8.05842 10.4208C6.69042 11.0632 4.70562 11.908 3.83042 12.1416C3.21762 12.3048 2.63282 11.8888 2.63282 11.8888C2.63282 11.8888 0.868023 10.3088 0.399223 9.95364C-0.0695775 9.59844 -0.0287775 9.41764 0.571223 9.22564C0.944823 9.10644 3.07522 9.62004 3.98322 9.84964C4.81131 9.35374 5.64907 8.87419 6.49602 8.41124C5.37922 7.58484 3.28962 6.04164 2.62322 5.57124C1.98402 5.11924 2.63122 4.95684 2.63122 4.95684C2.92562 4.87764 3.56082 4.77444 3.88082 4.84164C6.05762 5.29684 9.69122 6.49844 9.96962 6.59044C10.7417 6.18581 11.5211 5.79508 12.3072 5.41844C13.9672 4.63924 15.7688 5.38884 15.896 5.66244Z" fill="black"/>
</svg>
