<svg width="16" height="17" viewBox="0 0 16 17" fill="none" xmlns="http://www.w3.org/2000/svg">
<g clip-path="url(#clip0_72_8210)">
<path d="M10.6667 6.50006C10.06 6.50006 9.48667 6.62006 8.95333 6.83339L8.48667 4.80006L11.08 2.20672C11.4667 1.83339 11.4667 1.18672 11.08 0.793391C10.6933 0.400057 10.0533 0.402724 9.66667 0.793391L7.07333 3.38672L0.94 1.97339L0 2.91339L4.95333 5.50006L2.36 8.10006L0.706667 7.86672L0 8.57339L2.12 9.74672L3.3 11.8734L4 11.1667L3.77333 9.50006L6.36667 6.92006L7.04667 8.22672C6.49001 8.91081 6.13875 9.73873 6.03366 10.6144C5.92857 11.4901 6.07396 12.3776 6.45296 13.174C6.83195 13.9704 7.42901 14.6429 8.17484 15.1136C8.92068 15.5844 9.78471 15.8339 10.6667 15.8334C13.2467 15.8334 15.3333 13.7467 15.3333 11.1667C15.3333 8.58672 13.2467 6.50006 10.6667 6.50006ZM10.6667 14.5001C8.82667 14.5001 7.33333 13.0067 7.33333 11.1667C7.33333 9.32672 8.82667 7.83339 10.6667 7.83339C12.5067 7.83339 14 9.32672 14 11.1667C14 13.0067 12.5067 14.5001 10.6667 14.5001ZM11 11.3334V8.50006H10V11.8334L12.4067 13.2734L12.9067 12.4601L11 11.3334Z" fill="black"/>
</g>
<defs>
<clipPath id="clip0_72_8210">
<rect width="16" height="16" fill="white" transform="translate(0 0.5)"/>
</clipPath>
</defs>
</svg>
