<svg width="16" height="17" viewBox="0 0 16 17" fill="none" xmlns="http://www.w3.org/2000/svg">
<path d="M14 7.83329C14 11.5333 11.44 14.9933 8 15.8333C4.56 14.9933 2 11.5333 2 7.83329V3.83329L8 1.16663L14 3.83329V7.83329ZM8 14.5C10.5 13.8333 12.6667 10.86 12.6667 7.97996V4.69996L8 2.61996L3.33333 4.69996V7.97996C3.33333 10.86 5.5 13.8333 8 14.5ZM8 4.28663C8.33333 4.28663 8.63333 4.57329 8.63333 4.91996V7.23996L12 9.33996V10.1866L8.63333 9.13329V11.4466L9.47333 12.08V12.7133L8 12.2866L6.52667 12.7133V12.08L7.36667 11.4466V9.13329L4 10.1866V9.33996L7.36667 7.23996V4.91996C7.36667 4.57329 7.66667 4.28663 8 4.28663Z" fill="black"/>
</svg>
