<svg width="18" height="18" viewBox="0 0 18 18" fill="none" xmlns="http://www.w3.org/2000/svg">
<path fill-rule="evenodd" clip-rule="evenodd" d="M15.8954 2.10434C16.1346 2.34284 16.1459 2.71484 16.1099 3.02909C16.0731 3.35234 15.9711 3.72584 15.8384 4.09184C15.5759 4.81184 15.1559 5.60384 14.7524 6.00734L14.7449 6.01484L13.3881 7.29734L14.9481 11.4178C15.0354 11.6256 15.0603 11.8543 15.02 12.076C14.9796 12.2977 14.8757 12.5029 14.7209 12.6666L13.6731 13.7766C13.6347 13.8165 13.5879 13.8475 13.5362 13.8673C13.4844 13.8872 13.4289 13.8954 13.3736 13.8915C13.3183 13.8875 13.2646 13.8715 13.2162 13.8445C13.1677 13.8176 13.1258 13.7803 13.0934 13.7353L10.4909 10.0363L9.64715 10.8336C9.2579 11.2236 8.88515 11.5716 8.52665 11.8326C8.32307 11.9859 8.10078 12.1127 7.86515 12.2098L8.5649 13.9806C8.73065 14.4006 8.6114 14.8753 8.30615 15.1978L7.53965 16.0078C7.50178 16.0449 7.45673 16.0737 7.40727 16.0927C7.35781 16.1116 7.305 16.1203 7.25208 16.118C7.19916 16.1158 7.14727 16.1027 7.0996 16.0796C7.05192 16.0565 7.00949 16.0239 6.9749 15.9838L4.7699 13.2298L2.0159 11.0248C1.97579 10.9902 1.94323 10.9477 1.92022 10.9C1.89721 10.8522 1.88425 10.8003 1.88214 10.7473C1.88003 10.6944 1.88882 10.6416 1.90796 10.5922C1.92709 10.5428 1.95617 10.4978 1.9934 10.4601L2.80265 9.69359C3.12515 9.38834 3.5999 9.26834 4.01915 9.43409L5.79065 10.1338C5.88065 9.90659 6.0134 9.68609 6.1679 9.47309C6.42815 9.11459 6.77765 8.74109 7.1669 8.35184L7.96415 7.50884L4.26515 4.90634C4.22015 4.87396 4.18281 4.83209 4.15576 4.7837C4.12872 4.73531 4.11262 4.68157 4.10862 4.62628C4.10461 4.57099 4.11279 4.51549 4.13258 4.46371C4.15237 4.41192 4.18329 4.36512 4.22315 4.32659L5.33315 3.27809C5.6684 2.96234 6.15815 2.87309 6.58265 3.05159L10.7031 4.61159L11.9931 3.24659C12.3966 2.84309 13.1886 2.42309 13.9086 2.16134C14.2746 2.02859 14.6481 1.92659 14.9706 1.88984C15.2856 1.85384 15.6561 1.86509 15.8954 2.10434ZM12.5264 3.77384L11.0759 5.30834C11.0251 5.36204 10.9595 5.39952 10.8875 5.41606C10.8154 5.43261 10.7401 5.42749 10.6709 5.40134L6.30965 3.74984L6.29465 3.74384C6.22053 3.71191 6.13868 3.70243 6.05922 3.71656C5.97977 3.73069 5.90621 3.76781 5.84765 3.82334L5.0714 4.55609L8.7494 7.14359C8.79177 7.17583 8.82705 7.21646 8.85303 7.26293C8.87901 7.30941 8.89515 7.36074 8.90042 7.41372C8.9057 7.4667 8.90001 7.52021 8.8837 7.5709C8.8674 7.62158 8.84083 7.66837 8.80565 7.70834L7.70015 8.87834C7.3139 9.26384 6.9989 9.60359 6.7739 9.91334C6.54665 10.2253 6.43865 10.4728 6.4199 10.6738C6.41361 10.7314 6.39421 10.7867 6.36319 10.8356C6.33217 10.8845 6.29036 10.9256 6.24096 10.9558C6.19157 10.986 6.1359 11.0045 6.07825 11.0099C6.0206 11.0152 5.96249 11.0072 5.9084 10.9866L3.74315 10.1316C3.39215 9.99284 3.03515 10.5043 2.82065 10.7076L5.27165 12.6688C5.29365 12.6863 5.31315 12.7058 5.33015 12.7273L7.2914 15.1783C7.4939 14.9631 8.00615 14.6061 7.8674 14.2558L7.0124 12.0906C6.99176 12.0365 6.9838 11.9784 6.98913 11.9207C6.99446 11.8631 7.01294 11.8074 7.04314 11.758C7.07334 11.7086 7.11447 11.6668 7.16336 11.6358C7.21224 11.6048 7.26759 11.5854 7.32515 11.5791C7.52615 11.5603 7.7729 11.4516 8.0864 11.2243C8.3954 10.9993 8.73515 10.6843 9.1214 10.2988L9.1289 10.2913L10.2906 9.19259C10.3306 9.15747 10.3774 9.13096 10.428 9.11472C10.4787 9.09849 10.5321 9.09287 10.5851 9.09821C10.638 9.10356 10.6892 9.11977 10.7356 9.14581C10.782 9.17186 10.8225 9.20718 10.8546 9.24959L13.4421 12.9276L14.1756 12.1513C14.2332 12.0908 14.2711 12.0143 14.2842 11.9318C14.2973 11.8493 14.2851 11.7647 14.2491 11.6893L12.5984 7.32884C12.5722 7.25968 12.5671 7.18434 12.5837 7.11228C12.6002 7.04022 12.6377 6.97466 12.6914 6.92384L14.2259 5.47259C14.5139 5.18234 14.8859 4.51334 15.1334 3.83459C15.2594 3.48809 15.4281 3.05159 15.3674 2.67209C15.3629 2.64284 15.3554 2.63609 15.3261 2.63159C14.9474 2.57084 14.5109 2.73959 14.1644 2.86559C13.4849 3.11309 12.8166 3.48509 12.5256 3.77309" fill="white"/>
</svg>
