<svg width="14" height="15" viewBox="0 0 14 15" fill="none" xmlns="http://www.w3.org/2000/svg">
<path d="M2.99967 0.833374H10.9997C11.7361 0.833374 12.333 1.43033 12.333 2.16671V4.50004H11.9997C10.5269 4.50004 9.33301 5.69395 9.33301 7.16671V7.83337L4.66634 7.83337V7.16671C4.66634 5.69395 3.47243 4.50004 1.99967 4.50004H1.66634V2.16671C1.66634 1.43033 2.26329 0.833374 2.99967 0.833374Z" fill="black"/>
<path d="M1.99967 5.50004C1.0792 5.50004 0.333008 6.24623 0.333008 7.16671V11.5C0.333008 11.8682 0.631485 12.1667 0.999674 12.1667H1.66634L1.66634 13.5C1.66634 13.8682 1.96482 14.1667 2.33301 14.1667C2.7012 14.1667 2.99967 13.8682 2.99967 13.5V12.1667H10.9997V13.5C10.9997 13.8682 11.2982 14.1667 11.6663 14.1667C12.0345 14.1667 12.333 13.8682 12.333 13.5V12.1667H12.9997C13.3679 12.1667 13.6663 11.8682 13.6663 11.5V7.16671C13.6663 6.24623 12.9201 5.50004 11.9997 5.50004C11.0792 5.50004 10.333 6.24623 10.333 7.16671V8.16671C10.333 8.5349 10.0345 8.83337 9.66634 8.83337H4.33301C3.96482 8.83337 3.66634 8.5349 3.66634 8.16671V7.16671C3.66634 6.24623 2.92015 5.50004 1.99967 5.50004Z" fill="black"/>
</svg>
