<svg width="16" height="17" viewBox="0 0 16 17" fill="none" xmlns="http://www.w3.org/2000/svg">
<path d="M3.2 0.681885H12.8C13.6837 0.681885 14.4 1.39823 14.4 2.28188V5.08188H14C12.2327 5.08188 10.8 6.51457 10.8 8.28189V9.08189H5.2V8.28188C5.2 6.51457 3.76731 5.08188 2 5.08188H1.6L1.6 2.28188C1.6 1.39823 2.31634 0.681885 3.2 0.681885Z" fill="#BBBBBB"/>
<path d="M2 6.28188C0.895431 6.28188 0 7.17732 0 8.28188V13.4819C0 13.9237 0.358172 14.2819 0.8 14.2819H1.6L1.6 15.8819C1.6 16.3237 1.95817 16.6819 2.4 16.6819C2.84183 16.6819 3.2 16.3237 3.2 15.8819V14.2819H12.8V15.8819C12.8 16.3237 13.1582 16.6819 13.6 16.6819C14.0418 16.6819 14.4 16.3237 14.4 15.8819V14.2819H15.2C15.6418 14.2819 16 13.9237 16 13.4819V8.28188C16 7.17732 15.1046 6.28188 14 6.28188C12.8954 6.28188 12 7.17732 12 8.28188V9.48188C12 9.92371 11.6418 10.2819 11.2 10.2819H4.8C4.35817 10.2819 4 9.92371 4 9.48188V8.28188C4 7.17732 3.10457 6.28188 2 6.28188Z" fill="#BBBBBB"/>
</svg>
