<svg width="46" height="46" viewBox="0 0 46 46" fill="none" xmlns="http://www.w3.org/2000/svg">
<circle cx="23" cy="23" r="23" fill="#DEE2E6"/>
<path d="M13.881 18.3314C13.9173 17.7517 14.398 17.3 14.9789 17.3H31.0211C31.602 17.3 32.0827 17.7517 32.119 18.3314L32.8362 29.8067C32.9477 31.5913 31.5303 33.1 29.7422 33.1H16.2578C14.4697 33.1 13.0523 31.5913 13.1638 29.8067L13.881 18.3314Z" stroke="#C4C4C4" stroke-width="1.8"/>
<path d="M26.3 20.9C26.3 22.7226 24.8226 24.2 23 24.2C21.1775 24.2 19.7 22.7226 19.7 20.9" stroke="#C4C4C4" stroke-width="1.8" stroke-linecap="round"/>
<path d="M26.3 16.95V15.3C26.3 13.4774 24.8226 12 23 12C21.1775 12 19.7 13.4774 19.7 15.3V16.95" stroke="#C4C4C4" stroke-width="1.8" stroke-linecap="round"/>
</svg>
