<svg width="16" height="17" viewBox="0 0 16 17" fill="none" xmlns="http://www.w3.org/2000/svg">
<g clip-path="url(#clip0_991_1471)">
<path d="M5.33301 2.01526C5.7012 2.01526 5.99967 2.31374 5.99967 2.68193V3.34859L9.99967 3.34859V2.68193C9.99967 2.31374 10.2982 2.01526 10.6663 2.01526C11.0345 2.01526 11.333 2.31374 11.333 2.68193V3.34859H11.9997C13.4724 3.34859 14.6663 4.5425 14.6663 6.01526V8.01526C14.6663 8.38345 14.3679 8.68192 13.9997 8.68192H2.66634L2.66634 14.0142L2.66737 14.015C2.66716 14.015 2.66728 14.015 2.66737 14.015L2.66851 14.0153H5.66634C6.03453 14.0153 6.33301 14.3137 6.33301 14.6819C6.33301 15.0501 6.03453 15.3486 5.66634 15.3486L2.66851 15.3486C1.93495 15.3486 1.33301 14.7545 1.33301 14.0153V6.01526C1.33301 4.5425 2.52692 3.34859 3.99968 3.34859H4.66634V2.68193C4.66634 2.31374 4.96482 2.01526 5.33301 2.01526Z" fill="#BBBBBB"/>
<path d="M12.4711 10.2105L14.4711 12.2105C14.7314 12.4709 14.7314 12.893 14.4711 13.1533L12.4711 15.1533C12.2107 15.4137 11.7886 15.4137 11.5283 15.1533C11.2679 14.893 11.2679 14.4709 11.5283 14.2105L12.3902 13.3486H7.99967C7.63148 13.3486 7.33301 13.0501 7.33301 12.6819C7.33301 12.3137 7.63148 12.0153 7.99967 12.0153H12.3902L11.5283 11.1533C11.2679 10.893 11.2679 10.4709 11.5283 10.2105C11.7886 9.95017 12.2107 9.95017 12.4711 10.2105Z" fill="#BBBBBB"/>
</g>
<defs>
<clipPath id="clip0_991_1471">
<rect width="13.3333" height="13.3333" fill="white" transform="translate(1.33301 2.01526)"/>
</clipPath>
</defs>
</svg>
