<svg width="14" height="14" viewBox="0 0 14 14" fill="none" xmlns="http://www.w3.org/2000/svg">
<path d="M4.33301 0.0152588C4.7012 0.0152588 4.99967 0.313736 4.99967 0.681925V1.34859L8.99967 1.34859V0.681925C8.99967 0.313736 9.29815 0.0152588 9.66634 0.0152588C10.0345 0.0152588 10.333 0.313736 10.333 0.681925V1.34859H10.9997C12.4724 1.34859 13.6663 2.5425 13.6663 4.01526V6.01526C13.6663 6.38345 13.3679 6.68192 12.9997 6.68192H1.66634L1.66634 12.0142L1.66737 12.015C1.66716 12.015 1.66728 12.015 1.66737 12.015L1.66851 12.0153H4.66634C5.03453 12.0153 5.33301 12.3137 5.33301 12.6819C5.33301 13.0501 5.03453 13.3486 4.66634 13.3486L1.66851 13.3486C0.934951 13.3486 0.333008 12.7545 0.333008 12.0153V4.01526C0.333008 2.5425 1.52692 1.34859 2.99968 1.34859H3.66634V0.681925C3.66634 0.313736 3.96482 0.0152588 4.33301 0.0152588Z" fill="#BBBBBB"/>
<path d="M11.4711 8.21052L13.4711 10.2105C13.7314 10.4709 13.7314 10.893 13.4711 11.1533L11.4711 13.1533C11.2107 13.4137 10.7886 13.4137 10.5283 13.1533C10.2679 12.893 10.2679 12.4709 10.5283 12.2105L11.3902 11.3486H6.99967C6.63148 11.3486 6.33301 11.0501 6.33301 10.6819C6.33301 10.3137 6.63148 10.0153 6.99967 10.0153H11.3902L10.5283 9.15333C10.2679 8.89298 10.2679 8.47087 10.5283 8.21052C10.7886 7.95017 11.2107 7.95017 11.4711 8.21052Z" fill="#BBBBBB"/>
</svg>
