<svg width="16" height="16" viewBox="0 0 16 16" fill="none" xmlns="http://www.w3.org/2000/svg">
<path d="M13.7553 1.51726C13.2713 1.43926 12.7547 1.60193 12.306 1.7646C11.658 2.0006 10.926 2.3846 10.542 2.7686L9.46866 3.90393L5.91266 2.55726C5.69835 2.4679 5.46272 2.44264 5.23434 2.48453C5.00596 2.52642 4.79464 2.63366 4.62599 2.79326L3.63999 3.7246C3.41333 3.9386 3.43999 4.31793 3.69533 4.49793L6.82599 6.69993L6.25133 7.30793C5.90466 7.6546 5.58733 7.99327 5.34799 8.3226C5.2383 8.47092 5.14193 8.62865 5.05999 8.79393L3.63399 8.23127C3.19399 8.05793 2.70533 8.1846 2.37666 8.49593L1.65666 9.17593C1.6054 9.2255 1.56523 9.28537 1.53879 9.35159C1.51235 9.41781 1.50024 9.48888 1.50326 9.56012C1.50629 9.63136 1.52437 9.70115 1.55633 9.7649C1.58828 9.82864 1.63338 9.88489 1.68866 9.92993L4.12266 11.8779L6.07066 14.3119C6.25733 14.5453 6.61866 14.5606 6.82399 14.3433L7.50533 13.6233C7.81533 13.2953 7.94333 12.8059 7.76933 12.3666L7.20666 10.9413C7.37133 10.8613 7.52866 10.7613 7.67799 10.6526C8.00733 10.4133 8.34599 10.0959 8.69266 9.74993L9.30066 9.1746L11.5033 12.3053C11.5466 12.3651 11.6024 12.4147 11.667 12.4507C11.7315 12.4866 11.8031 12.508 11.8767 12.5132C11.9504 12.5185 12.0243 12.5076 12.0933 12.4812C12.1623 12.4548 12.2246 12.4137 12.276 12.3606L13.2073 11.3739C13.3668 11.2052 13.4739 10.9939 13.5157 10.7655C13.5575 10.5371 13.5321 10.3015 13.4427 10.0873L12.0967 6.53126L13.232 5.45793C13.6167 5.07326 14 4.34193 14.236 3.69393C14.3987 3.24593 14.5613 2.7286 14.4833 2.2446C14.4588 2.06043 14.3744 1.88944 14.243 1.758C14.1117 1.62656 13.9408 1.54197 13.7567 1.51726" fill="black"/>
<path fill-rule="evenodd" clip-rule="evenodd" d="M13.7554 1.51729C13.9047 1.54063 14.0954 1.60063 14.2474 1.75263C14.4 1.90529 14.4594 2.09529 14.4827 2.24463C14.5074 2.39796 14.5027 2.55996 14.486 2.71129C14.4514 3.01663 14.356 3.36196 14.2354 3.69396C13.9994 4.34196 13.6154 5.07396 13.2314 5.45796L13.2214 5.46796L12.096 6.53129L13.4427 10.0873C13.5321 10.3016 13.5573 10.5372 13.5154 10.7656C13.4736 10.994 13.3663 11.2053 13.2067 11.374L12.2754 12.3606C12.2241 12.4139 12.1617 12.4553 12.0926 12.4818C12.0236 12.5083 11.9495 12.5193 11.8758 12.514C11.802 12.5088 11.7303 12.4873 11.6657 12.4512C11.6011 12.4152 11.5452 12.3653 11.502 12.3053L9.30005 9.17463L8.69205 9.74996C8.34538 10.096 8.00671 10.4133 7.67738 10.6526C7.52805 10.7613 7.37071 10.8613 7.20605 10.9413L7.76871 12.3666C7.94205 12.8066 7.81538 13.2953 7.50471 13.624L6.82338 14.344C6.77386 14.3951 6.71408 14.4353 6.64794 14.4617C6.58181 14.4881 6.51084 14.5003 6.43968 14.4973C6.36853 14.4943 6.2988 14.4764 6.2351 14.4445C6.17139 14.4127 6.11514 14.3677 6.07005 14.3126L4.12205 11.878L1.68805 9.92996C1.63292 9.88487 1.58797 9.82862 1.55614 9.76491C1.52431 9.7012 1.50633 9.63148 1.50337 9.56032C1.50041 9.48917 1.51254 9.41819 1.53897 9.35206C1.5654 9.28593 1.60553 9.22614 1.65671 9.17663L2.37671 8.49596C2.70471 8.18529 3.19405 8.05729 3.63338 8.23129L5.05938 8.79463C5.13938 8.62929 5.23938 8.47196 5.34738 8.32263C5.58671 7.99329 5.90405 7.65463 6.25071 7.30796L6.82538 6.69996L3.69471 4.49729C3.63477 4.4541 3.58504 4.39827 3.54904 4.33375C3.51304 4.26923 3.49165 4.19759 3.48637 4.1239C3.48109 4.0502 3.49206 3.97625 3.5185 3.90726C3.54494 3.83827 3.5862 3.77592 3.63938 3.72463L4.62605 2.79329C4.79476 2.6338 5.00612 2.52668 5.2345 2.48491C5.46287 2.44314 5.69847 2.46851 5.91271 2.55796L9.46871 3.90396L10.532 2.77863L10.542 2.76863C10.9267 2.38396 11.658 1.99996 12.3067 1.76463C12.6387 1.64396 12.984 1.54863 13.2894 1.51396C13.4407 1.49729 13.6027 1.49263 13.756 1.51729M11.2534 3.47129L9.96671 4.83263C9.89897 4.90447 9.81148 4.95465 9.71526 4.97684C9.61904 4.99902 9.5184 4.99222 9.42605 4.95729L5.55005 3.48996L5.53005 3.48196C5.49409 3.46628 5.45431 3.46152 5.41567 3.46828C5.37702 3.47504 5.34122 3.49301 5.31271 3.51996L4.77071 4.03196L7.87338 6.21463C8.11871 6.38796 8.15538 6.74863 7.94871 6.96729L6.97205 7.99996L6.96271 8.00929C6.62071 8.35129 6.34805 8.64529 6.15605 8.90929C5.96205 9.17796 5.88538 9.36796 5.87271 9.50329C5.8645 9.58007 5.83879 9.65394 5.79754 9.71921C5.7563 9.78448 5.70063 9.83943 5.63481 9.8798C5.569 9.92018 5.4948 9.94492 5.41792 9.95211C5.34104 9.9593 5.26354 9.94876 5.19138 9.92129L3.26605 9.16063C3.09138 9.09129 2.86605 9.40796 2.76138 9.50729L4.79005 11.1313C4.81839 11.1551 4.8447 11.1812 4.86871 11.2093L6.49205 13.238C6.59138 13.1333 6.90805 12.908 6.83871 12.7333L6.07871 10.8086C6.05113 10.7365 6.04047 10.659 6.04756 10.582C6.05466 10.5051 6.07931 10.4309 6.11963 10.365C6.15995 10.2991 6.21485 10.2433 6.28011 10.202C6.34537 10.1607 6.41925 10.1349 6.49605 10.1266C6.63138 10.114 6.82138 10.0373 7.08938 9.84263C7.35405 9.65129 7.64805 9.37863 7.98938 9.03663L8.00005 9.02729L9.03338 8.05063C9.08588 8.00222 9.14804 7.96549 9.21577 7.94285C9.2835 7.92022 9.35525 7.9122 9.42631 7.91932C9.49736 7.92643 9.5661 7.94853 9.62799 7.98415C9.68989 8.01977 9.74353 8.0681 9.78538 8.12596L11.968 11.2286L12.48 10.6866C12.507 10.6583 12.525 10.6226 12.5319 10.5841C12.5387 10.5456 12.5342 10.5059 12.5187 10.47L12.51 10.45L11.0434 6.57329C11.0085 6.48108 11.0017 6.38063 11.0237 6.28455C11.0458 6.18847 11.0958 6.10105 11.1674 6.03329L12.5287 4.74596C12.76 4.51196 13.0794 3.94596 13.2954 3.35129C13.394 3.08129 13.49 2.78996 13.4994 2.49996C13.2094 2.50929 12.918 2.60529 12.648 2.70396C12.054 2.91996 11.488 3.23996 11.2534 3.47129Z" fill="black"/>
</svg>
