<svg width="14" height="15" viewBox="0 0 14 15" fill="none" xmlns="http://www.w3.org/2000/svg">
<path d="M4.33301 0.833374C4.7012 0.833374 4.99967 1.13185 4.99967 1.50004V2.16671L8.99967 2.16671V1.50004C8.99967 1.13185 9.29815 0.833374 9.66634 0.833374C10.0345 0.833374 10.333 1.13185 10.333 1.50004V2.16671H10.9997C12.4724 2.16671 13.6663 3.36062 13.6663 4.83337V6.83337C13.6663 7.20156 13.3679 7.50004 12.9997 7.50004H1.66634L1.66634 12.8323L1.66737 12.8331C1.66716 12.8331 1.66728 12.8331 1.66737 12.8331L1.66851 12.8334H4.66634C5.03453 12.8334 5.33301 13.1318 5.33301 13.5C5.33301 13.8682 5.03453 14.1667 4.66634 14.1667L1.66851 14.1667C0.934951 14.1667 0.333008 13.5726 0.333008 12.8334V4.83337C0.333008 3.36061 1.52692 2.16671 2.99968 2.16671H3.66634V1.50004C3.66634 1.13185 3.96482 0.833374 4.33301 0.833374Z" fill="black"/>
<path d="M11.4711 9.02864L13.4711 11.0286C13.7314 11.289 13.7314 11.7111 13.4711 11.9714L11.4711 13.9714C11.2107 14.2318 10.7886 14.2318 10.5283 13.9714C10.2679 13.7111 10.2679 13.289 10.5283 13.0286L11.3902 12.1667H6.99967C6.63148 12.1667 6.33301 11.8682 6.33301 11.5C6.33301 11.1319 6.63148 10.8334 6.99967 10.8334H11.3902L10.5283 9.97144C10.2679 9.71109 10.2679 9.28899 10.5283 9.02864C10.7886 8.76829 11.2107 8.76829 11.4711 9.02864Z" fill="black"/>
</svg>
