<svg width="16" height="16" viewBox="0 0 16 16" fill="none" xmlns="http://www.w3.org/2000/svg">
<path d="M6 6.66663H4.66667V7.99996H6V6.66663ZM8.66667 6.66663H7.33333V7.99996H8.66667V6.66663ZM11.3333 6.66663H10V7.99996H11.3333V6.66663ZM12.6667 1.99996H12V0.666626H10.6667V1.99996H5.33333V0.666626H4V1.99996H3.33333C2.97971 1.99996 2.64057 2.14044 2.39052 2.39048C2.14048 2.64053 2 2.97967 2 3.33329V12.6666C2 13.0202 2.14048 13.3594 2.39052 13.6094C2.64057 13.8595 2.97971 14 3.33333 14H12.6667C13.0203 14 13.3594 13.8595 13.6095 13.6094C13.8595 13.3594 14 13.0202 14 12.6666V3.33329C14 2.97967 13.8595 2.64053 13.6095 2.39048C13.3594 2.14044 13.0203 1.99996 12.6667 1.99996ZM12.6667 12.6666H3.33333V5.33329H12.6667V12.6666Z" fill="black"/>
</svg>
