<svg width="16" height="17" viewBox="0 0 16 17" fill="none" xmlns="http://www.w3.org/2000/svg">
<path d="M16 14C16 14.1326 15.9473 14.2598 15.8536 14.3535C15.7598 14.4473 15.6326 14.5 15.5 14.5H6.5C6.36739 14.5 6.24021 14.4473 6.14645 14.3535C6.05268 14.2598 6 14.1326 6 14C6 13.8674 6.05268 13.7402 6.14645 13.6464C6.24021 13.5527 6.36739 13.5 6.5 13.5H15.5C15.6326 13.5 15.7598 13.5527 15.8536 13.6464C15.9473 13.7402 16 13.8674 16 14ZM14.5 12.5C14.6326 12.5 14.7598 12.4473 14.8536 12.3535C14.9473 12.2598 15 12.1326 15 12V9.76999C14.9987 9.22403 14.8193 8.6934 14.489 8.25867C14.1587 7.82394 13.6956 7.50885 13.17 7.36124L9.3675 6.29874L7.96125 2.94686C7.93371 2.88108 7.89241 2.82194 7.84012 2.77343C7.78784 2.72493 7.72579 2.68816 7.65812 2.66561L7.31625 2.55186C7.16597 2.50177 7.00594 2.48809 6.84934 2.51195C6.69275 2.53582 6.54406 2.59654 6.41552 2.68913C6.28699 2.78171 6.18229 2.90351 6.11005 3.04449C6.03781 3.18546 6.00009 3.34158 6 3.49999V5.33686L4.13312 4.80499L3.47 2.96936C3.44429 2.89831 3.40282 2.83402 3.34869 2.7813C3.29457 2.72858 3.2292 2.68881 3.1575 2.66499L2.81562 2.55124C2.66533 2.50125 2.50532 2.48767 2.34875 2.51163C2.19219 2.53558 2.04355 2.59638 1.91509 2.68903C1.78662 2.78167 1.682 2.9035 1.60983 3.04449C1.53766 3.18548 1.50002 3.3416 1.5 3.49999V6.98249C1.5012 7.52769 1.68006 8.05765 2.00949 8.49208C2.33892 8.92651 2.80096 9.24173 3.32562 9.38999L14.365 12.4812C14.4089 12.4936 14.4544 12.4999 14.5 12.5Z" fill="black"/>
</svg>
