<svg width="16" height="17" viewBox="0 0 16 17" fill="none" xmlns="http://www.w3.org/2000/svg">
<g clip-path="url(#clip0_67_7961)">
<path d="M14.9999 2.5V1.5H10.9999V2.5C11.0006 2.94241 11.1483 3.37205 11.4198 3.72133C11.6914 4.07061 12.0713 4.31973 12.4999 4.4295V6H11.4999V7H14.4999V6H13.4999V4.4295C13.9285 4.31973 14.3084 4.07061 14.5799 3.72133C14.8515 3.37205 14.9992 2.94241 14.9999 2.5ZM5.24989 5C4.90377 5 4.56543 4.89737 4.27764 4.70507C3.98986 4.51278 3.76556 4.23947 3.6331 3.9197C3.50065 3.59993 3.46599 3.24806 3.53352 2.90859C3.60104 2.56913 3.76771 2.25731 4.01246 2.01256C4.2572 1.76782 4.56902 1.60115 4.90848 1.53363C5.24795 1.4661 5.59982 1.50076 5.91959 1.63321C6.23936 1.76566 6.51267 1.98997 6.70496 2.27775C6.89726 2.56554 6.99989 2.90388 6.99989 3.25C6.99936 3.71397 6.81482 4.15878 6.48674 4.48685C6.15867 4.81493 5.71386 4.99947 5.24989 5ZM5.24989 2.5C5.10156 2.5 4.95655 2.54399 4.83321 2.6264C4.70988 2.70881 4.61375 2.82594 4.55698 2.96299C4.50022 3.10003 4.48536 3.25083 4.5143 3.39632C4.54324 3.5418 4.61467 3.67544 4.71956 3.78033C4.82445 3.88522 4.95809 3.95665 5.10357 3.98559C5.24906 4.01453 5.39986 3.99968 5.5369 3.94291C5.67395 3.88614 5.79108 3.79002 5.87349 3.66668C5.95591 3.54334 5.99989 3.39834 5.99989 3.25C5.99963 3.05117 5.92053 2.86056 5.77993 2.71996C5.63934 2.57937 5.44872 2.50027 5.24989 2.5ZM11.2374 16.1565L9.66989 12.5H6.11889C5.67823 12.4995 5.25002 12.3537 4.90057 12.0853C4.55113 11.8168 4.29993 11.4407 4.18589 11.015L3.36889 7.9515C3.24372 7.45465 3.31918 6.92848 3.57896 6.48684C3.83873 6.04519 4.26194 5.72357 4.75702 5.59155C5.25211 5.45953 5.77926 5.52773 6.22445 5.78139C6.66963 6.03506 6.99706 6.45379 7.13589 6.947L7.55089 8.5H10.4999V9.5H6.78239L6.17089 7.205C6.10161 6.9666 5.94176 6.76479 5.72555 6.64277C5.50935 6.52075 5.25397 6.48821 5.01407 6.55212C4.77417 6.61604 4.56883 6.77132 4.44199 6.98473C4.31514 7.19814 4.27688 7.45273 4.33539 7.694L5.15239 10.757C5.20946 10.9699 5.33512 11.1581 5.50993 11.2924C5.68473 11.4268 5.89894 11.4997 6.11939 11.5H10.3294L12.1569 15.7625L11.2374 16.1565Z" fill="#121212"/>
<path d="M9.00009 14.5H3.88409C3.66383 14.4997 3.44982 14.4267 3.27519 14.2925C3.10056 14.1583 2.97505 13.9702 2.91809 13.7575L1.01709 6.62897L1.98309 6.37097L3.88409 13.5H9.00009V14.5Z" fill="#121212"/>
</g>
<defs>
<clipPath id="clip0_67_7961">
<rect width="16" height="16" fill="white" transform="translate(0 0.5)"/>
</clipPath>
</defs>
</svg>
