<svg width="16" height="17" viewBox="0 0 16 17" fill="none" xmlns="http://www.w3.org/2000/svg">
<g clip-path="url(#clip0_67_7985)">
<path d="M7.5 0.5C7.63542 0.5 7.7526 0.549479 7.85156 0.648438C7.95052 0.747396 8 0.864583 8 1V6.5C8 6.77604 7.94792 7.03385 7.84375 7.27344C7.73958 7.51302 7.59635 7.72396 7.41406 7.90625C7.23177 8.08854 7.01823 8.23177 6.77344 8.33594C6.52865 8.4401 6.27083 8.49479 6 8.5V16C6 16.1354 5.95052 16.2526 5.85156 16.3516C5.7526 16.4505 5.63542 16.5 5.5 16.5C5.36458 16.5 5.2474 16.4505 5.14844 16.3516C5.04948 16.2526 5 16.1354 5 16V8.5C4.72396 8.5 4.46615 8.44792 4.22656 8.34375C3.98698 8.23958 3.77604 8.09635 3.59375 7.91406C3.41146 7.73177 3.26823 7.52083 3.16406 7.28125C3.0599 7.04167 3.00521 6.78125 3 6.5V1C3 0.864583 3.04948 0.747396 3.14844 0.648438C3.2474 0.549479 3.36458 0.5 3.5 0.5C3.63542 0.5 3.7526 0.549479 3.85156 0.648438C3.95052 0.747396 4 0.864583 4 1V6.5C4 6.64062 4.02604 6.77083 4.07812 6.89062C4.13021 7.01042 4.20052 7.11458 4.28906 7.20312C4.3776 7.29167 4.48438 7.36458 4.60938 7.42188C4.73438 7.47917 4.86458 7.50521 5 7.5V1C5 0.864583 5.04948 0.747396 5.14844 0.648438C5.2474 0.549479 5.36458 0.5 5.5 0.5C5.63542 0.5 5.7526 0.549479 5.85156 0.648438C5.95052 0.747396 6 0.864583 6 1V7.5C6.14062 7.5 6.27083 7.47396 6.39062 7.42188C6.51042 7.36979 6.61458 7.29948 6.70312 7.21094C6.79167 7.1224 6.86458 7.01562 6.92188 6.89062C6.97917 6.76562 7.00521 6.63542 7 6.5V1C7 0.864583 7.04948 0.747396 7.14844 0.648438C7.2474 0.549479 7.36458 0.5 7.5 0.5ZM13 0.5V16C13 16.1354 12.9505 16.2526 12.8516 16.3516C12.7526 16.4505 12.6354 16.5 12.5 16.5C12.3646 16.5 12.2474 16.4505 12.1484 16.3516C12.0495 16.2526 12 16.1354 12 16V11.5C11.8073 11.5 11.599 11.5026 11.375 11.5078C11.151 11.513 10.9297 11.5104 10.7109 11.5C10.4922 11.4896 10.2786 11.4583 10.0703 11.4062C9.86198 11.3542 9.67969 11.2734 9.52344 11.1641C9.36719 11.0547 9.23958 10.9062 9.14062 10.7188C9.04167 10.5312 8.99479 10.2917 9 10V4C9 3.51562 9.09115 3.0625 9.27344 2.64062C9.45573 2.21875 9.70573 1.84896 10.0234 1.53125C10.3411 1.21354 10.7109 0.963542 11.1328 0.78125C11.5547 0.598958 12.0104 0.505208 12.5 0.5H13ZM12 1.54688C11.7083 1.60417 11.4427 1.70833 11.2031 1.85938C10.9635 2.01042 10.7526 2.19792 10.5703 2.42188C10.388 2.64583 10.2474 2.88802 10.1484 3.14844C10.0495 3.40885 10 3.69271 10 4V10C10 10.1354 10.0495 10.2526 10.1484 10.3516C10.2474 10.4505 10.3646 10.5 10.5 10.5H12V1.54688Z" fill="#121212"/>
</g>
<defs>
<clipPath id="clip0_67_7985">
<rect width="16" height="16" fill="white" transform="translate(0 0.5)"/>
</clipPath>
</defs>
</svg>
