<svg width="14" height="15" viewBox="0 0 14 15" fill="none" xmlns="http://www.w3.org/2000/svg">
<path d="M5.6875 4.38499V5.12437H13.9923C13.9808 4.88593 13.9558 4.58449 13.8666 4.38499" fill="#EC1C24"/>
<path d="M13.475 3.64563H5.6875V4.385H13.8666C13.7777 4.10916 13.6456 3.8576 13.475 3.64563Z" fill="#E6E7E8"/>
<path d="M11.8125 2.90625H5.6875V3.64562H13.475C13.1099 3.18844 12.509 2.90625 11.8125 2.90625Z" fill="#EC1C24"/>
<path d="M13.9923 5.12437H5.6875V5.86375H14V5.37091C14 5.32694 13.9972 5.28406 13.9958 5.24097C13.995 5.22916 13.9937 5.19875 13.9923 5.12437Z" fill="#E6E7E8"/>
<path d="M5.6875 6.60313H14V5.86375H5.6875V6.60313Z" fill="#EC1C24"/>
<path d="M5.6875 7.34249H14V6.60312H5.6875V7.34249Z" fill="#E6E7E8"/>
<path d="M5.6875 7.3425H14V8.08187H5.6875V7.3425Z" fill="#EC1C24"/>
<path d="M0 8.08188V8.82125H14V8.08188H5.6875H0Z" fill="#E6E7E8"/>
<path d="M0 8.82124H14V9.56062H0V8.82124Z" fill="#EC1C24"/>
<path d="M0.00109375 10.0154C0.00109375 10.0154 -0.000875 10.1946 0.004375 10.3H13.9956C14.0017 10.1919 13.9989 10.0154 13.9989 10.0154L14 9.56062H0L0.00109375 10.0154Z" fill="#E6E7E8"/>
<path d="M2.18758 12.5312H11.8126C12.511 12.5312 13.0916 12.2775 13.4882 11.7787H0.509766C0.919266 12.2884 1.51077 12.5312 2.18648 12.5312" fill="#EC1C24"/>
<path d="M0.510762 11.7787H13.4892C13.6622 11.5589 13.7914 11.3079 13.8698 11.0394H0.132324C0.212189 11.3071 0.340862 11.5578 0.511855 11.7787" fill="#E6E7E8"/>
<path d="M0.13127 11.0394H13.8688C13.9404 10.7989 13.983 10.5506 13.9956 10.3H0.00439453C0.0260508 10.5529 0.0461758 10.7438 0.13127 11.0394Z" fill="#EC1C24"/>
<path d="M5.6875 2.90625H2.1875C0.737844 2.90625 0 3.98359 0 5.3125V8.08187H5.6875V2.90625Z" fill="#176496"/>
<path d="M0.611832 4.2135L0.730832 4.12206L0.849613 4.2135L0.803457 4.0665L0.921801 3.97659H0.775676L0.730394 3.82893L0.685332 3.97659H0.539426L0.658207 4.0665L0.611832 4.2135ZM1.39802 4.2135L1.51702 4.12206L1.6358 4.2135L1.58986 4.0665L1.70799 3.97659H1.56208L1.5168 3.82893L1.47174 3.97659H1.32539L1.44418 4.0665L1.39802 4.2135ZM2.26536 4.2135L2.38414 4.12206L2.50314 4.2135L2.45699 4.0665L2.57511 3.97659H2.43008L2.38414 3.82893L2.33886 3.97659H2.19383L2.3113 4.0665L2.26536 4.2135ZM3.12636 4.2135L3.24514 4.12206L3.36414 4.2135L3.31821 4.0665L3.43633 3.97659H3.28977L3.24514 3.82893L3.20008 3.97659H3.05396L3.17252 4.0665L3.12636 4.2135ZM3.99043 4.2135L4.10943 4.12206L4.22821 4.2135L4.18227 4.0665L4.30061 3.97659H4.15427L4.10921 3.82893L4.06414 3.97659H3.91824L4.03636 4.0665L3.99043 4.2135ZM1.0303 4.5974L1.14908 4.50618L1.26786 4.5974L1.22214 4.45062L1.34027 4.36071H1.19414L1.14886 4.21328L1.10446 4.36071H0.957895L1.07624 4.45062L1.0303 4.5974ZM1.81671 4.5974L1.93549 4.50618L2.05427 4.5974L2.00833 4.45062L2.12646 4.36071H1.97946L1.93549 4.21328L1.89021 4.36071H1.7443L1.86264 4.45062L1.81671 4.5974ZM2.68405 4.5974L2.80261 4.50618L2.92139 4.5974L2.87546 4.45062L2.9938 4.36071H2.84789L2.80261 4.21328L2.75733 4.36071H2.61121L2.72955 4.45062L2.68405 4.5974ZM3.54461 4.5974L3.66361 4.50618L3.78261 4.5974L3.73602 4.45062L3.85458 4.36071H3.70868L3.66339 4.21328L3.61855 4.36071H3.47243L3.59077 4.45062L3.54461 4.5974ZM4.40977 4.5974L4.52768 4.50618L4.64646 4.5974L4.60008 4.45062L4.71864 4.36071H4.57296L4.52746 4.21328L4.48261 4.36071H4.33649L4.45483 4.45062L4.40977 4.5974ZM4.89693 4.2135L5.01571 4.12206L5.13471 4.2135L5.08855 4.0665L5.20668 3.97659H5.06164L5.01549 3.82893L4.97043 3.97659H4.82321L4.94286 4.0665L4.89693 4.2135ZM0.600238 7.28562L0.719238 7.19528L0.83802 7.28562L0.792082 7.13993L0.910207 7.04981L0.764301 7.05025L0.718801 6.90281L0.674176 7.05025L0.527832 7.04981L0.646176 7.13993L0.600238 7.28562ZM1.38664 7.28562L1.50543 7.19528L1.62443 7.28562L1.57827 7.13993L1.69639 7.04981L1.55071 7.05025L1.50521 6.90281L1.46036 7.05025L1.31446 7.04981L1.43258 7.13993L1.38664 7.28562ZM2.25399 7.28562L2.37277 7.19528L2.49177 7.28562L2.44561 7.13993L2.56374 7.04981L2.41696 7.05025L2.37255 6.90281L2.32749 7.05025L2.18158 7.04981L2.29993 7.13993L2.25399 7.28562ZM3.11499 7.28562L3.23377 7.19528L3.35255 7.28562L3.30727 7.13993L3.42474 7.04981L3.27861 7.05025L3.23355 6.90281L3.18849 7.05025L3.04258 7.04981L3.16071 7.13993L3.11499 7.28562ZM3.97883 7.28562L4.09783 7.19528L4.21683 7.28562L4.17133 7.13993L4.2888 7.04981L4.14289 7.05025L4.09761 6.90281L4.05277 7.05025L3.90664 7.04981L4.02477 7.13993L3.97883 7.28562ZM4.88533 7.28562L5.00411 7.19528L5.12311 7.28562L5.07696 7.13993L5.1953 7.04981L5.04852 7.05025L5.00389 6.90281L4.95883 7.05025L4.81227 7.04981L4.93127 7.13993L4.88533 7.28562ZM0.611832 4.98175L0.730832 4.89031L0.849613 4.98175L0.803457 4.83475L0.921801 4.74484L0.775676 4.74528L0.730394 4.5974L0.685332 4.74528L0.539426 4.74484L0.658207 4.83475L0.611832 4.98175ZM1.39802 4.98175L1.51702 4.89031L1.6358 4.98175L1.58986 4.83475L1.70799 4.74484L1.56208 4.74528L1.5168 4.5974L1.47174 4.74528L1.32539 4.74484L1.44418 4.83475L1.39802 4.98175ZM2.26536 4.98175L2.38414 4.89031L2.50314 4.98175L2.45699 4.83475L2.57511 4.74484L2.43008 4.74528L2.38414 4.5974L2.33886 4.74528L2.19383 4.74484L2.3113 4.83475L2.26536 4.98175ZM3.12636 4.98175L3.24514 4.89031L3.36414 4.98175L3.31821 4.83475L3.43633 4.74484L3.28977 4.74528L3.24514 4.5974L3.20008 4.74528L3.05396 4.74484L3.17252 4.83475L3.12636 4.98175ZM3.99043 4.98175L4.10943 4.89031L4.22821 4.98175L4.18227 4.83475L4.30061 4.74484L4.15427 4.74528L4.10921 4.5974L4.06414 4.74528L3.91824 4.74484L4.03636 4.83475L3.99043 4.98175ZM1.0303 5.36587L1.14908 5.27465L1.26786 5.36587L1.22214 5.21909L1.34027 5.12875H1.19414L1.14886 4.98175L1.10446 5.12875H0.957895L1.07624 5.21909L1.0303 5.36587ZM1.81671 5.36587L1.93549 5.27465L2.05427 5.36587L2.00833 5.21909L2.12646 5.12875H1.97946L1.93549 4.98175L1.89021 5.12875H1.7443L1.86264 5.21909L1.81671 5.36587ZM2.68405 5.36587L2.80261 5.27465L2.92139 5.36587L2.87546 5.21909L2.9938 5.12875H2.84789L2.80261 4.98175L2.75733 5.12875H2.61121L2.72955 5.21909L2.68405 5.36587ZM3.54461 5.36587L3.66361 5.27465L3.78261 5.36587L3.73602 5.21909L3.85458 5.12875H3.70868L3.66339 4.98175L3.61855 5.12875H3.47243L3.59077 5.21909L3.54461 5.36587ZM4.40977 5.36587L4.52768 5.27465L4.64646 5.36587L4.60008 5.21909L4.71864 5.12875H4.57296L4.52746 4.98175L4.48261 5.12875H4.33649L4.45483 5.21909L4.40977 5.36587ZM4.89693 4.98175L5.01571 4.89031L5.13471 4.98175L5.08855 4.83475L5.20668 4.74484L5.06164 4.74528L5.01549 4.5974L4.97043 4.74528L4.82321 4.74484L4.94286 4.83475L4.89693 4.98175ZM0.600238 5.75L0.719238 5.65878L0.83802 5.75L0.791863 5.60343L0.910207 5.51331L0.764082 5.51375L0.718801 5.36587L0.674176 5.51375L0.527832 5.51331L0.646176 5.60343L0.600238 5.75ZM1.38664 5.75L1.50543 5.65878L1.62443 5.75L1.57827 5.60343L1.69639 5.51331L1.55071 5.51375L1.50521 5.36587L1.46036 5.51375L1.31446 5.51331L1.43236 5.60343L1.38664 5.75ZM2.25399 5.75L2.37277 5.65878L2.49155 5.75L2.44561 5.60343L2.56374 5.51331L2.41696 5.51375L2.37255 5.36587L2.32749 5.51375L2.18158 5.51331L2.29993 5.60343L2.25399 5.75ZM3.11499 5.75L3.23355 5.65878L3.35255 5.75L3.30727 5.60343L3.42474 5.51331L3.27861 5.51375L3.23355 5.36587L3.18849 5.51375L3.04258 5.51331L3.16071 5.60343L3.11499 5.75ZM3.97883 5.75L4.09783 5.65878L4.21661 5.75L4.17133 5.60343L4.2888 5.51331L4.14268 5.51375L4.09761 5.36587L4.05277 5.51375L3.90664 5.51331L4.02477 5.60343L3.97883 5.75ZM1.01871 6.13412L1.13749 6.04312L1.25627 6.13412L1.21055 5.98843L1.32846 5.89787H1.18233L1.13727 5.75L1.09243 5.89787H0.946301L1.06464 5.98843L1.01871 6.13412ZM1.80511 6.13412L1.92389 6.04312L2.04268 6.13412L1.99674 5.98843L2.11486 5.89787H1.96852L1.92368 5.75L1.87861 5.89787H1.73249L1.85105 5.98843L1.80511 6.13412ZM2.67268 6.13412L2.79102 6.04312L2.91002 6.13412L2.86321 5.98843L2.98221 5.89787H2.8363L2.79102 5.75L2.74596 5.89787H2.59983L2.71818 5.98843L2.67268 6.13412ZM3.53258 6.13412L3.65202 6.04312L3.77102 6.13412L3.72508 5.98843L3.84299 5.89787H3.69708L3.6518 5.75L3.60696 5.89787H3.46083L3.57918 5.98843L3.53258 6.13412ZM4.39664 6.13412L4.51608 6.04312L4.63508 6.13412L4.58893 5.98843L4.70749 5.89787H4.56158L4.51608 5.75L4.47102 5.89787H4.32489L4.44324 5.98843L4.39664 6.13412ZM4.88533 5.75L5.00411 5.65878L5.12289 5.75L5.07696 5.60343L5.1953 5.51331L5.04852 5.51375L5.00389 5.36587L4.95883 5.51375L4.81227 5.51331L4.93127 5.60343L4.88533 5.75ZM0.600238 6.51847L0.719238 6.42812L0.83802 6.51847L0.791863 6.37168L0.910207 6.28156L0.764082 6.282L0.718801 6.13412L0.674176 6.282L0.527832 6.28156L0.646176 6.37168L0.600238 6.51847ZM1.38664 6.51847L1.50543 6.42812L1.62443 6.51847L1.57827 6.37168L1.69639 6.28156L1.55071 6.282L1.50521 6.13412L1.46036 6.282L1.31446 6.28156L1.43236 6.37168L1.38664 6.51847ZM2.25399 6.51847L2.37277 6.42812L2.49155 6.51847L2.44561 6.37168L2.56374 6.28156L2.41696 6.282L2.37255 6.13412L2.32749 6.282L2.18158 6.28156L2.29993 6.37168L2.25399 6.51847ZM3.11499 6.51847L3.23355 6.42812L3.35255 6.51847L3.30727 6.37168L3.42474 6.28156L3.27861 6.282L3.23355 6.13412L3.18849 6.282L3.04258 6.28156L3.16071 6.37168L3.11499 6.51847ZM3.97883 6.51847L4.09783 6.42812L4.21661 6.51847L4.17133 6.37168L4.2888 6.28156L4.14268 6.282L4.09761 6.13412L4.05277 6.282L3.90664 6.28156L4.02477 6.37168L3.97883 6.51847ZM1.01871 6.90281L1.13749 6.81137L1.25627 6.90281L1.21055 6.75581L1.32846 6.66656H1.18233L1.13727 6.51847L1.09243 6.66656H0.946301L1.06464 6.75581L1.01871 6.90281ZM1.80511 6.90281L1.92389 6.81137L2.04268 6.90281L1.99674 6.75581L2.11486 6.66656H1.96852L1.92368 6.51847L1.87861 6.66656H1.73249L1.85105 6.75581L1.80511 6.90281ZM2.67268 6.90281L2.79102 6.81137L2.91002 6.90281L2.86321 6.75581L2.98221 6.66656H2.8363L2.79102 6.51847L2.74596 6.66656H2.59983L2.71818 6.75581L2.67268 6.90281ZM3.53258 6.90281L3.65202 6.81137L3.77102 6.90281L3.72508 6.75581L3.84299 6.66656H3.69708L3.6518 6.51847L3.60696 6.66656H3.46083L3.57918 6.75581L3.53258 6.90281ZM4.39664 6.90281L4.51608 6.81137L4.63508 6.90281L4.58893 6.75581L4.70749 6.66656H4.56158L4.51608 6.51847L4.47102 6.66656H4.32489L4.44324 6.75581L4.39664 6.90281ZM4.88533 6.51847L5.00411 6.42812L5.12289 6.51847L5.07696 6.37168L5.1953 6.28156L5.04852 6.282L5.00389 6.13412L4.95883 6.282L4.81227 6.28156L4.93127 6.37168L4.88533 6.51847Z" fill="white"/>
</svg>
