<svg width="46" height="46" viewBox="0 0 46 46" fill="none" xmlns="http://www.w3.org/2000/svg">
<circle cx="23" cy="23" r="23" fill="#FED130"/>
<path d="M31.633 13.276C30.907 13.159 30.132 13.403 29.459 13.647C28.487 14.001 27.389 14.577 26.813 15.153L25.203 16.856L19.869 14.836C19.5476 14.702 19.1941 14.6641 18.8516 14.7269C18.509 14.7898 18.192 14.9506 17.939 15.19L16.46 16.587C16.12 16.908 16.16 17.477 16.543 17.747L21.239 21.05L20.377 21.962C19.857 22.482 19.381 22.99 19.022 23.484C18.8575 23.7065 18.713 23.9431 18.59 24.191L16.451 23.347C15.791 23.087 15.058 23.2771 14.565 23.7441L13.485 24.764C13.4082 24.8384 13.3479 24.9282 13.3082 25.0275C13.2686 25.1269 13.2504 25.2335 13.255 25.3403C13.2595 25.4472 13.2866 25.5519 13.3346 25.6475C13.3825 25.7431 13.4501 25.8275 13.533 25.8951L17.184 28.817L20.106 32.4681C20.386 32.8181 20.928 32.841 21.236 32.515L22.258 31.435C22.723 30.943 22.915 30.209 22.654 29.55L21.81 27.4121C22.057 27.2921 22.293 27.142 22.517 26.979C23.011 26.62 23.519 26.144 24.039 25.625L24.951 24.762L28.255 29.458C28.3199 29.5478 28.4037 29.6223 28.5005 29.6762C28.5973 29.7301 28.7047 29.7621 28.8152 29.77C28.9257 29.7779 29.0365 29.7615 29.14 29.722C29.2435 29.6824 29.337 29.6207 29.414 29.541L30.8111 28.0611C31.0503 27.808 31.211 27.4909 31.2736 27.1484C31.3363 26.8058 31.2982 26.4524 31.164 26.131L29.145 20.797L30.848 19.187C31.425 18.61 32 17.513 32.354 16.541C32.598 15.869 32.8421 15.0931 32.725 14.367C32.6882 14.0908 32.5616 13.8343 32.3646 13.6372C32.1676 13.44 31.9113 13.3131 31.635 13.276" fill="black"/>
<path fill-rule="evenodd" clip-rule="evenodd" d="M31.6329 13.276C31.8569 13.311 32.1429 13.401 32.3709 13.629C32.5999 13.858 32.6889 14.143 32.7239 14.367C32.7609 14.597 32.7539 14.84 32.7289 15.067C32.6769 15.525 32.5339 16.043 32.3529 16.541C31.9989 17.513 31.4229 18.611 30.8469 19.187L30.8319 19.202L29.1439 20.797L31.1639 26.131C31.298 26.4525 31.3359 26.8059 31.2731 27.1485C31.2102 27.491 31.0493 27.808 30.8099 28.061L29.4129 29.541C29.336 29.6209 29.2424 29.683 29.1388 29.7228C29.0352 29.7625 28.9242 29.779 28.8135 29.7711C28.7028 29.7632 28.5953 29.731 28.4984 29.6769C28.4015 29.6228 28.3177 29.5481 28.2529 29.458L24.9499 24.762L24.0379 25.625C23.5179 26.144 23.0099 26.62 22.5159 26.979C22.2919 27.142 22.0559 27.292 21.8089 27.412L22.6529 29.55C22.9129 30.21 22.7229 30.943 22.2569 31.436L21.2349 32.516C21.1607 32.5928 21.071 32.653 20.9718 32.6926C20.8726 32.7323 20.7661 32.7505 20.6594 32.746C20.5527 32.7416 20.4481 32.7146 20.3525 32.6669C20.257 32.6191 20.1726 32.5517 20.1049 32.469L17.1829 28.817L13.5319 25.895C13.4493 25.8274 13.3818 25.743 13.3341 25.6474C13.2863 25.5519 13.2594 25.4473 13.2549 25.3405C13.2505 25.2338 13.2687 25.1273 13.3083 25.0282C13.348 24.929 13.4082 24.8393 13.4849 24.765L14.5649 23.744C15.0569 23.278 15.7909 23.086 16.4499 23.347L18.5889 24.192C18.7089 23.944 18.8589 23.708 19.0209 23.484C19.3799 22.99 19.8559 22.482 20.3759 21.962L21.2379 21.05L16.5419 17.746C16.452 17.6812 16.3774 17.5975 16.3234 17.5007C16.2694 17.4039 16.2373 17.2965 16.2294 17.1859C16.2215 17.0754 16.238 16.9644 16.2776 16.8609C16.3173 16.7575 16.3792 16.6639 16.4589 16.587L17.9389 15.19C18.192 14.9508 18.5091 14.7901 18.8516 14.7274C19.1942 14.6648 19.5476 14.7028 19.8689 14.837L25.2029 16.856L26.7979 15.168L26.8129 15.153C27.3899 14.576 28.4869 14 29.4599 13.647C29.9579 13.466 30.4759 13.323 30.9339 13.271C31.1609 13.246 31.4039 13.239 31.6339 13.276M27.8799 16.207L25.9499 18.249C25.8483 18.3568 25.7171 18.432 25.5728 18.4653C25.4284 18.4986 25.2775 18.4884 25.1389 18.436L19.3249 16.235L19.2949 16.223C19.241 16.1995 19.1813 16.1923 19.1234 16.2025C19.0654 16.2126 19.0117 16.2396 18.9689 16.28L18.1559 17.048L22.8099 20.322C23.1779 20.582 23.2329 21.123 22.9229 21.451L21.4579 23L21.4439 23.014C20.9309 23.527 20.5219 23.968 20.2339 24.364C19.9429 24.767 19.8279 25.052 19.8089 25.255C19.7966 25.3702 19.7581 25.481 19.6962 25.5789C19.6343 25.6768 19.5508 25.7592 19.4521 25.8198C19.3534 25.8803 19.2421 25.9174 19.1268 25.9282C19.0114 25.939 18.8952 25.9232 18.7869 25.882L15.8989 24.741C15.6369 24.637 15.2989 25.112 15.1419 25.261L18.1849 27.697C18.2275 27.7327 18.2669 27.7718 18.3029 27.814L20.7379 30.857C20.8869 30.7 21.3619 30.362 21.2579 30.1L20.1179 27.213C20.0766 27.1048 20.0606 26.9885 20.0712 26.8731C20.0819 26.7577 20.1188 26.6464 20.1793 26.5475C20.2398 26.4487 20.3222 26.3651 20.42 26.3031C20.5179 26.2411 20.6287 26.2024 20.7439 26.19C20.9469 26.171 21.2319 26.056 21.6339 25.764C22.0309 25.477 22.4719 25.068 22.9839 24.555L22.9999 24.541L24.5499 23.076C24.6287 23.0034 24.7219 22.9483 24.8235 22.9143C24.9251 22.8804 25.0328 22.8684 25.1393 22.879C25.2459 22.8897 25.349 22.9229 25.4419 22.9763C25.5347 23.0297 25.6152 23.1022 25.6779 23.189L28.9519 27.843L29.7199 27.03C29.7603 26.9874 29.7874 26.934 29.7977 26.8762C29.808 26.8184 29.8011 26.7589 29.7779 26.705L29.7649 26.675L27.5649 20.86C27.5126 20.7217 27.5024 20.571 27.5355 20.4269C27.5686 20.2828 27.6435 20.1516 27.7509 20.05L29.7929 18.119C30.1399 17.768 30.6189 16.919 30.9429 16.027C31.0909 15.622 31.2349 15.185 31.2489 14.75C30.8139 14.764 30.3769 14.908 29.9719 15.056C29.0809 15.38 28.2319 15.86 27.8799 16.207Z" fill="black"/>
</svg>
