<svg width="88" height="25" viewBox="0 0 88 25" fill="none" xmlns="http://www.w3.org/2000/svg">
<path d="M76.5908 24.1322C76.1454 23.7782 76.1554 23.5487 76.608 23.3325C76.8571 23.214 77.1292 23.1444 77.42 23.0422C77.3641 22.9326 77.304 22.8171 77.2366 22.6868C76.3373 22.7845 75.4322 23.3769 74.5156 22.5876C74.9467 22.5506 75.3291 22.5165 75.7129 22.4839C75.7129 22.4499 75.7114 22.4173 75.7114 22.3832C75.2131 22.3832 74.7132 22.404 74.2163 22.3788C73.5117 22.3432 72.7971 22.3358 72.1054 22.2055C71.2475 22.0441 70.911 21.3955 71.2676 20.5676C71.5053 20.0153 71.8547 19.494 72.2357 19.029C72.9661 18.136 73.8611 17.4444 74.8479 16.855C75.637 16.3841 76.3831 15.8243 77.1049 15.2453C77.8095 14.6826 77.7608 13.8932 77.0018 13.4119C76.6323 13.178 76.1883 13.0654 75.7773 12.9025C75.057 12.6182 74.3008 12.4035 73.622 12.0362C72.7742 11.5786 72.2887 10.7819 72.2056 9.78522C72.1412 9.00183 71.7344 8.50573 71.047 8.33839C70.2293 8.14143 69.3857 7.99778 68.548 7.95484C66.9411 7.87191 65.33 7.85562 63.7203 7.84821C61.1553 7.83636 58.6864 7.23956 56.2288 6.57316C55.1304 6.2755 54.0463 5.92305 52.9579 5.59133C52.8132 5.5469 52.6772 5.47433 52.5368 5.37808C53.7341 5.3144 54.9528 5.46989 56.1787 4.9501C54.2009 4.07341 53.0395 2.53771 52.332 0.5C53.2715 0.836164 54.1523 1.15752 55.0344 1.46851C58.1149 2.55252 61.257 3.40996 64.4592 3.99344C65.7209 4.22298 67.0256 4.20372 68.3102 4.2985C69.5146 4.38587 70.7119 4.531 71.8418 5.00193C73.0477 5.50543 73.864 6.35251 73.9456 7.77121C74.0316 9.2521 74.9152 10.0947 76.1081 10.6693C77.5116 11.3446 79.0196 11.546 80.5491 11.6275C81.8896 11.7 83.2358 11.743 84.5662 11.9074C85.3568 12.0051 86.0743 12.3842 86.4652 13.3216C86.0958 13.4534 85.7478 13.5615 85.4141 13.7066C85.2866 13.7629 85.195 13.9066 85.0875 14.0102C85.2265 14.0487 85.3725 14.1361 85.5029 14.1154C85.7463 14.0784 85.9855 13.9939 86.2175 13.9036C86.7961 13.6785 87.8415 14.2487 87.9804 14.881C88.042 15.1594 87.9647 15.3786 87.6582 15.4141C87.1226 15.4763 86.5827 15.5074 86.0471 15.5711C84.1209 15.7962 82.1832 15.9561 80.2742 16.2893C79.2803 16.4626 78.3222 16.9069 77.3799 17.3052C77.0003 17.4666 76.6767 17.8072 76.3731 18.1153C76.058 18.4351 75.7873 18.8054 75.5138 19.1667C75.0727 19.7472 75.0312 20.2907 75.4723 20.8594C76.2843 21.9079 77.3842 22.4913 78.6387 22.7712C78.7905 22.8053 78.9638 22.7135 79.1271 22.709C79.7171 22.6883 80.3114 22.6453 80.8986 22.6824C81.0948 22.6957 81.2781 22.9267 81.4671 23.0585C81.4457 23.0866 81.4242 23.1148 81.4027 23.1414C81.0719 23.0955 80.7411 23.0496 80.4059 23.0022C80.499 23.2362 80.585 23.4554 80.6523 23.6257C80.2985 23.5591 79.952 23.4539 79.6011 23.4347C78.9638 23.3991 78.3251 23.411 77.6863 23.405C77.1908 23.4065 76.787 23.5679 76.5908 24.1322Z" fill="white"/>
<path d="M13.9868 10.5211C13.8636 10.5685 13.7447 10.644 13.6173 10.6603C12.9943 10.7403 12.8826 10.8661 13.0616 11.5C13.8178 14.1671 14.594 16.8282 15.3645 19.4909C15.4432 19.7619 15.532 20.0299 15.6552 20.4209C15.754 20.1899 15.8156 20.0595 15.8657 19.9248C16.9656 16.9837 18.064 14.0427 19.1668 11.1031C19.2842 10.7921 19.3615 10.3212 19.7468 10.3789C19.9644 10.4115 20.1879 10.8128 20.3039 11.0942C21.514 14.0353 22.7041 16.9852 23.8999 19.9322C23.9372 20.024 23.9773 20.1143 24.0489 20.2832C24.1534 19.984 24.2451 19.7545 24.3152 19.519C25.0385 17.0948 25.7588 14.6706 26.4763 12.2449C26.5336 12.0538 26.5723 11.8554 26.6095 11.6599C26.7527 10.918 26.6124 10.7299 25.8891 10.6618C25.7459 10.6484 25.6084 10.5744 25.4681 10.53C25.4767 10.4663 25.4839 10.4041 25.4924 10.3404C25.7445 10.3256 25.998 10.2989 26.25 10.2975C27.221 10.293 28.192 10.296 29.163 10.296C29.2188 10.296 29.2804 10.2797 29.3291 10.2989C29.458 10.3493 29.5812 10.413 29.7058 10.4722C29.5869 10.5374 29.4666 10.6603 29.3477 10.6573C28.6388 10.6455 28.3538 11.1297 28.1505 11.7132C27.4888 13.6147 26.8186 15.5117 26.177 17.4206C25.4867 19.4775 24.8251 21.5464 24.1505 23.6093C24.119 23.704 24.1076 23.8166 24.0503 23.8906C23.9128 24.0683 23.7624 24.3497 23.602 24.3601C23.4474 24.3704 23.2053 24.1276 23.1209 23.9395C22.6712 22.9236 22.2573 21.8899 21.8334 20.8622C21.0013 18.8452 20.1692 16.8282 19.3357 14.8112C19.2985 14.7194 19.2556 14.6306 19.1825 14.4647C19.0722 14.7313 18.9863 14.9342 18.9047 15.14C17.7704 18.0041 16.6405 20.8711 15.4991 23.7322C15.3874 24.0106 15.3129 24.3926 14.9291 24.3852C14.5295 24.3778 14.5081 23.9765 14.4135 23.6951C13.0817 19.7293 11.7541 15.7605 10.438 11.7902C10.2189 11.1297 9.93816 10.6011 9.14333 10.6544C9.07316 10.6588 8.99439 10.5329 8.91992 10.4678C8.99153 10.4174 9.0617 10.3271 9.13617 10.3241C9.48131 10.3093 9.82932 10.3212 10.1759 10.3197C11.2443 10.3123 12.3126 10.3004 13.3824 10.2989C13.5772 10.2989 13.772 10.3404 13.9667 10.3626C13.9739 10.4145 13.9796 10.4678 13.9868 10.5211Z" fill="white"/>
<path d="M53.0294 9.91992C54.0477 10.1124 55.096 10.2028 56.0784 10.5152C58.609 11.3209 60.127 13.1172 60.4579 15.8539C60.74 18.1833 60.2101 20.3084 58.6176 22.0574C57.4089 23.3857 55.8808 24.0877 54.1465 24.3098C52.2776 24.5497 50.443 24.409 48.7775 23.4213C46.2268 21.9093 45.1169 19.5295 45.3676 16.5662C45.611 13.6725 47.1391 11.6481 49.7857 10.5937C50.2611 10.4042 50.7667 10.2753 51.2693 10.188C51.8422 10.0873 52.4265 10.0636 53.0065 10.0058C53.0137 9.97768 53.0208 9.94954 53.0294 9.91992ZM57.8457 17.7598C57.7511 16.9808 57.7239 16.2878 57.5779 15.6214C57.1582 13.7021 56.1959 12.1857 54.3785 11.3993C51.6861 10.2354 49.0266 11.5178 48.3063 14.3567C47.8251 16.2493 47.9124 18.1404 48.6572 19.9589C49.3245 21.5909 50.4473 22.7371 52.1329 23.2154C54.6706 23.9351 56.7687 22.7563 57.4619 20.1737C57.6781 19.368 57.7297 18.515 57.8457 17.7598Z" fill="white"/>
<path d="M36.8365 9.96143C38.2944 10.0414 39.6979 10.2783 40.9954 10.9684C43.6018 12.3531 44.5084 14.958 44.2907 17.6177C43.9656 21.588 40.994 24.3454 36.815 24.4017C34.8287 24.4283 32.9554 24.0226 31.4403 22.6113C29.4095 20.7202 28.7035 18.3181 29.3093 15.5903C29.9265 12.8122 31.678 11.0706 34.336 10.3553C35.148 10.1362 36.0016 10.0873 36.8365 9.96143ZM41.6484 17.7672C41.5596 17.0046 41.5195 16.3885 41.4121 15.7843C40.9424 13.1616 39.2453 11.3757 36.8451 11.0543C34.9518 10.8011 32.8953 11.5534 32.1649 14.1094C31.6479 15.9191 31.6766 17.7421 32.2866 19.5221C32.9655 21.505 34.2401 22.8615 36.2952 23.3043C38.6467 23.8093 40.5858 22.6349 41.2331 20.2492C41.4623 19.4036 41.5281 18.5077 41.6484 17.7672Z" fill="white"/>
<path d="M0.0366098 21.8858C0.0666844 21.3423 0.0810052 20.7958 0.136858 20.2553C0.152611 20.0998 0.290097 19.9576 0.371728 19.8081C0.441902 19.9547 0.53499 20.0954 0.579386 20.2494C0.735487 20.7958 0.792772 21.3912 1.03766 21.8887C1.88405 23.6036 4.53204 23.9842 5.85533 22.6203C6.57998 21.8739 6.75183 20.7366 6.29928 19.6644C5.97419 18.8929 5.4128 18.3198 4.80415 17.7896C3.90334 17.0033 2.96817 16.2554 2.11176 15.4202C1.19233 14.5242 0.58225 13.4284 0.471977 12.0822C0.327332 10.3052 1.14507 8.83611 2.71468 8.09122C3.89045 7.53292 5.13067 7.48405 6.38521 7.61289C6.92083 7.66768 7.44785 7.81133 7.9806 7.90462C8.24697 7.95053 8.35152 8.08233 8.3372 8.37259C8.29567 9.23151 8.27991 10.0919 8.2527 10.9523C8.24984 11.0382 8.257 11.1345 8.2212 11.2055C8.1811 11.2855 8.09803 11.3433 8.03359 11.4114C7.96628 11.3344 7.86459 11.2692 7.83882 11.1804C7.75002 10.8664 7.72998 10.5258 7.61111 10.2267C6.93944 8.56066 4.63659 7.97423 3.27464 9.1086C2.49127 9.76167 2.25067 10.9449 2.81063 11.866C3.12857 12.3888 3.56822 12.8538 4.02078 13.2655C5.04045 14.1925 6.14891 15.0203 7.13421 15.9814C8.36298 17.1795 8.9215 18.693 8.69093 20.4582C8.45606 22.2545 7.45644 23.4585 5.8453 24.0538C4.08809 24.7039 2.30509 24.6151 0.545014 23.9738C0.162637 23.8346 -0.0135145 23.5918 0.000806751 23.1727C0.015128 22.7432 0.00367161 22.3123 0.00367161 21.8828C0.0151286 21.8858 0.026585 21.8858 0.0366098 21.8858Z" fill="white"/>
<path d="M65.4031 16.9171C65.4031 18.826 65.383 20.7348 65.4117 22.6437C65.4245 23.4804 65.6766 23.6981 66.4757 23.7588C66.6275 23.7707 66.7865 23.744 66.9311 23.781C67.0701 23.8166 67.1961 23.9129 67.3264 23.9825C67.1875 24.0476 67.0514 24.1616 66.9111 24.1676C66.4815 24.1824 66.0518 24.1439 65.6222 24.1453C64.3877 24.1513 63.1532 24.175 61.9187 24.1676C61.7282 24.1661 61.5378 24.0402 61.3473 23.9721C61.5235 23.9054 61.6953 23.7973 61.8743 23.7796C62.4858 23.7233 62.7064 23.5782 62.7723 22.931C62.8596 22.0632 62.9026 21.1865 62.904 20.3128C62.9126 17.5554 62.8954 14.7994 62.8854 12.042C62.8811 11.0231 62.5932 10.7299 61.5951 10.6633C61.4189 10.6514 61.2485 10.5359 61.0752 10.4693C61.2571 10.4115 61.4375 10.3019 61.6194 10.3019C63.6602 10.2975 65.7009 10.299 67.7403 10.3286C68.1928 10.3345 68.6554 10.4145 69.0951 10.5344C70.9654 11.0453 71.8519 12.6728 71.365 14.6513C70.8981 16.5483 69.3042 17.8264 67.2219 17.97C67.0414 17.9819 66.8552 18.0129 66.682 17.9774C66.4886 17.9374 66.3067 17.8323 66.1191 17.7553C66.2967 17.6797 66.47 17.5554 66.6533 17.5391C67.6057 17.4547 68.3017 16.9645 68.7585 16.1233C68.9318 15.8049 69.0564 15.4406 69.1252 15.0808C69.423 13.5495 68.6912 11.9931 67.4238 11.3963C66.8624 11.1312 66.2738 11.1075 65.6723 11.1801C65.3544 11.2186 65.32 11.4318 65.3214 11.7028C65.3272 13.4399 65.3243 15.1785 65.3243 16.9156C65.3529 16.9171 65.3773 16.9171 65.4031 16.9171Z" fill="white"/>
</svg>
