<svg width="17" height="18" viewBox="0 0 17 18" fill="none" xmlns="http://www.w3.org/2000/svg">
<path fill-rule="evenodd" clip-rule="evenodd" d="M8.96602 1.01121C8.70525 0.762541 8.29514 0.762541 8.03437 1.01121L0.534372 8.16303C0.400787 8.29041 0.325195 8.46695 0.325195 8.65153V16.4997C0.325195 16.8725 0.627403 17.1747 1.0002 17.1747H6.2502V16.4997H6.25137V12.6735C6.25137 11.4315 7.2582 10.4247 8.5002 10.4247C9.74219 10.4247 10.749 11.4315 10.749 12.6735V16.4997H10.7502V17.1747H16.0002C16.373 17.1747 16.6752 16.8725 16.6752 16.4997V8.65153C16.6752 8.46695 16.5996 8.29042 16.466 8.16303L8.96602 1.01121ZM12.099 15.8247H15.3252V8.94057L8.5002 2.43241L1.6752 8.94057V15.8247H4.90137V12.6735C4.90137 10.686 6.51262 9.07471 8.5002 9.07471C10.4878 9.07471 12.099 10.686 12.099 12.6735V15.8247Z" fill="white"/>
</svg>
