<svg width="14" height="14" viewBox="0 0 14 14" fill="none" xmlns="http://www.w3.org/2000/svg">
<g clip-path="url(#clip0_991_1492)">
<path d="M9.66699 0.0152588C9.2988 0.0152588 9.00033 0.313736 9.00033 0.681925V1.34859L5.00033 1.34859V0.681925C5.00033 0.313736 4.70185 0.0152588 4.33366 0.0152588C3.96547 0.0152588 3.66699 0.313736 3.66699 0.681925V1.34859H3.00033C1.52757 1.34859 0.33366 2.5425 0.33366 4.01526V6.01526C0.33366 6.38345 0.632136 6.68192 1.00033 6.68192H12.3337L12.3337 12.0142L12.3326 12.015C12.3328 12.015 12.3327 12.015 12.3326 12.015L12.3315 12.0153H9.33366C8.96547 12.0153 8.66699 12.3137 8.66699 12.6819C8.66699 13.0501 8.96547 13.3486 9.33366 13.3486L12.3315 13.3486C13.065 13.3486 13.667 12.7545 13.667 12.0153V4.01526C13.667 2.5425 12.4731 1.34859 11.0003 1.34859H10.3337V0.681925C10.3337 0.313736 10.0352 0.0152588 9.66699 0.0152588Z" fill="#BBBBBB"/>
<path d="M2.52892 8.21052L0.528921 10.2105C0.268572 10.4709 0.268572 10.893 0.528921 11.1533L2.52892 13.1533C2.78927 13.4137 3.21138 13.4137 3.47173 13.1533C3.73208 12.893 3.73208 12.4709 3.47173 12.2105L2.6098 11.3486H7.00033C7.36852 11.3486 7.66699 11.0501 7.66699 10.6819C7.66699 10.3137 7.36852 10.0153 7.00033 10.0153H2.6098L3.47173 9.15333C3.73208 8.89298 3.73208 8.47087 3.47173 8.21052C3.21138 7.95017 2.78927 7.95017 2.52892 8.21052Z" fill="#BBBBBB"/>
</g>
<defs>
<clipPath id="clip0_991_1492">
<rect width="13.3333" height="13.3333" fill="white" transform="matrix(-1 0 0 1 13.667 0.0152588)"/>
</clipPath>
</defs>
</svg>
