<svg width="16" height="17" viewBox="0 0 16 17" fill="none" xmlns="http://www.w3.org/2000/svg">
<g clip-path="url(#clip0_67_7966)">
<path d="M13.3333 0.5C13.2475 0.500874 13.1633 0.522854 13.088 0.564L3.73333 3.16667C3.59189 3.16667 3.45623 3.22286 3.35621 3.32288C3.25619 3.4229 3.2 3.55855 3.2 3.7V10.3987C2.87694 10.2069 2.50898 10.1039 2.13333 10.1C1.7114 10.1 1.29894 10.2251 0.948118 10.4595C0.597293 10.6939 0.323858 11.0271 0.162391 11.4169C0.000924333 11.8068 -0.0413228 12.2357 0.0409924 12.6495C0.123307 13.0634 0.326488 13.4435 0.62484 13.7418C0.923192 14.0402 1.30332 14.2434 1.71714 14.3257C2.13097 14.408 2.55991 14.3657 2.94973 14.2043C3.33954 14.0428 3.67272 13.7694 3.90714 13.4185C4.14155 13.0677 4.26667 12.6553 4.26667 12.2333V7.284L12.8 4.916V8.79867C12.4769 8.60693 12.109 8.5039 11.7333 8.5C11.3114 8.5 10.8989 8.62512 10.5481 8.85953C10.1973 9.09394 9.92386 9.42713 9.76239 9.81694C9.60092 10.2068 9.55868 10.6357 9.64099 11.0495C9.72331 11.4634 9.92649 11.8435 10.2248 12.1418C10.5232 12.4402 10.9033 12.6434 11.3171 12.7257C11.731 12.808 12.1599 12.7657 12.5497 12.6043C12.9395 12.4428 13.2727 12.1694 13.5071 11.8185C13.7415 11.4677 13.8667 11.0553 13.8667 10.6333V1.03333C13.8667 0.891885 13.8105 0.756229 13.7105 0.65621C13.6104 0.55619 13.4748 0.5 13.3333 0.5ZM12.8 3.84933L4.26667 6.21733V4.084L12.8 1.716V3.84933Z" fill="#121212"/>
</g>
<defs>
<clipPath id="clip0_67_7966">
<rect width="16" height="16" fill="white" transform="translate(0 0.5)"/>
</clipPath>
</defs>
</svg>
