<svg width="14" height="14" viewBox="0 0 14 14" fill="none" xmlns="http://www.w3.org/2000/svg">
<path fill-rule="evenodd" clip-rule="evenodd" d="M6.99967 0.0152588C3.31767 0.0152588 0.333008 2.99993 0.333008 6.68193C0.333008 10.3639 3.31767 13.3486 6.99967 13.3486C10.6817 13.3486 13.6663 10.3639 13.6663 6.68193C13.6663 2.99993 10.6817 0.0152588 6.99967 0.0152588ZM4.66634 5.01526C4.66634 4.70884 4.72669 4.40542 4.84396 4.12233C4.96122 3.83924 5.13309 3.58201 5.34976 3.36534C5.56643 3.14867 5.82365 2.9768 6.10675 2.85954C6.38984 2.74228 6.69326 2.68193 6.99967 2.68193C7.30609 2.68193 7.60951 2.74228 7.8926 2.85954C8.1757 2.9768 8.43292 3.14867 8.64959 3.36534C8.86626 3.58201 9.03813 3.83924 9.15539 4.12233C9.27265 4.40542 9.33301 4.70884 9.33301 5.01526C9.33301 5.6341 9.08718 6.22759 8.64959 6.66517C8.21201 7.10276 7.61851 7.34859 6.99967 7.34859C6.38084 7.34859 5.78734 7.10276 5.34976 6.66517C4.91217 6.22759 4.66634 5.6341 4.66634 5.01526ZM11.1717 10.0046C10.6725 10.6322 10.038 11.1389 9.31563 11.4871C8.59324 11.8352 7.80158 12.0158 6.99967 12.0153C6.19777 12.0158 5.40611 11.8352 4.68372 11.4871C3.96134 11.1389 3.32688 10.6322 2.82767 10.0046C3.90834 9.22926 5.38301 8.68193 6.99967 8.68193C8.61634 8.68193 10.091 9.22926 11.1717 10.0046Z" fill="#BBBBBB"/>
</svg>
