<svg width="14" height="15" viewBox="0 0 14 15" fill="none" xmlns="http://www.w3.org/2000/svg">
<path fill-rule="evenodd" clip-rule="evenodd" d="M6.99998 0.333405C3.31798 0.333405 0.333313 3.31807 0.333313 7.00007C0.333313 10.6821 3.31798 13.6667 6.99998 13.6667C10.682 13.6667 13.6666 10.6821 13.6666 7.00007C13.6666 3.31807 10.682 0.333405 6.99998 0.333405ZM4.66665 5.3334C4.66665 5.02699 4.727 4.72357 4.84426 4.44048C4.96152 4.15738 5.13339 3.90016 5.35006 3.68349C5.56673 3.46682 5.82396 3.29495 6.10705 3.17769C6.39015 3.06042 6.69356 3.00007 6.99998 3.00007C7.3064 3.00007 7.60981 3.06042 7.89291 3.17769C8.176 3.29495 8.43323 3.46682 8.6499 3.68349C8.86657 3.90016 9.03844 4.15738 9.1557 4.44048C9.27296 4.72357 9.33331 5.02699 9.33331 5.3334C9.33331 5.95224 9.08748 6.54574 8.6499 6.98332C8.21231 7.42091 7.61882 7.66674 6.99998 7.66674C6.38114 7.66674 5.78765 7.42091 5.35006 6.98332C4.91248 6.54574 4.66665 5.95224 4.66665 5.3334ZM11.172 10.3227C10.6728 10.9503 10.0383 11.4571 9.31593 11.8052C8.59355 12.1534 7.80188 12.3339 6.99998 12.3334C6.19808 12.3339 5.40641 12.1534 4.68403 11.8052C3.96164 11.4571 3.32719 10.9503 2.82798 10.3227C3.90865 9.5474 5.38331 9.00007 6.99998 9.00007C8.61665 9.00007 10.0913 9.5474 11.172 10.3227Z" fill="#121212"/>
</svg>
