<svg width="47" height="46" viewBox="0 0 47 46" fill="none" xmlns="http://www.w3.org/2000/svg">
<circle cx="23.5" cy="23" r="23" fill="#DEE2E6"/>
<mask id="path-2-inside-1_72_10201" fill="white">
<path fill-rule="evenodd" clip-rule="evenodd" d="M23.7162 12.2247C23.5982 12.102 23.4018 12.102 23.2838 12.2247L20.6132 15H14.5C13.3954 15 12.5 15.8955 12.5 17V32C12.5 33.1046 13.3954 34 14.5 34H32.5C33.6046 34 34.5 33.1046 34.5 32V17C34.5 15.8955 33.6046 15 32.5 15H26.3868L23.7162 12.2247Z"/>
</mask>
<path d="M23.2838 12.2247L21.9868 10.9766L21.9868 10.9766L23.2838 12.2247ZM23.7162 12.2247L25.0132 10.9766L25.0132 10.9766L23.7162 12.2247ZM20.6132 15V16.8C21.1026 16.8 21.5709 16.6008 21.9103 16.2481L20.6132 15ZM26.3868 15L25.0897 16.2481C25.4291 16.6008 25.8974 16.8 26.3868 16.8V15ZM24.5809 13.4728C23.9908 14.086 23.0092 14.086 22.4191 13.4728L25.0132 10.9766C24.1871 10.1181 22.8129 10.1181 21.9868 10.9766L24.5809 13.4728ZM21.9103 16.2481L24.5809 13.4728L21.9868 10.9766L19.3162 13.752L21.9103 16.2481ZM14.5 16.8H20.6132V13.2H14.5V16.8ZM14.3 17C14.3 16.8896 14.3895 16.8 14.5 16.8V13.2C12.4013 13.2 10.7 14.9014 10.7 17H14.3ZM14.3 32V17H10.7V32H14.3ZM14.5 32.2C14.3895 32.2 14.3 32.1105 14.3 32H10.7C10.7 34.0987 12.4013 35.8 14.5 35.8V32.2ZM32.5 32.2H14.5V35.8H32.5V32.2ZM32.7 32C32.7 32.1105 32.6105 32.2 32.5 32.2V35.8C34.5987 35.8 36.3 34.0987 36.3 32H32.7ZM32.7 17V32H36.3V17H32.7ZM32.5 16.8C32.6105 16.8 32.7 16.8896 32.7 17H36.3C36.3 14.9014 34.5987 13.2 32.5 13.2V16.8ZM26.3868 16.8H32.5V13.2H26.3868V16.8ZM22.4191 13.4728L25.0897 16.2481L27.6838 13.752L25.0132 10.9766L22.4191 13.4728Z" fill="#BBBBBB" mask="url(#path-2-inside-1_72_10201)"/>
<circle cx="23.5" cy="23" r="3.1" stroke="#BBBBBB" stroke-width="1.8"/>
<path d="M16.5 33V33C16.5 30.7909 18.2909 29 20.5 29H26.5C28.7091 29 30.5 30.7909 30.5 33V33" stroke="#BBBBBB" stroke-width="1.8"/>
</svg>
