<svg width="14" height="14" viewBox="0 0 14 14" fill="none" xmlns="http://www.w3.org/2000/svg">
<path fill-rule="evenodd" clip-rule="evenodd" d="M12.7554 0.199178C12.9047 0.222511 13.0954 0.282511 13.2474 0.434511C13.4 0.587178 13.4594 0.777178 13.4827 0.926511C13.5074 1.07984 13.5027 1.24184 13.486 1.39318C13.4514 1.69851 13.356 2.04384 13.2354 2.37584C12.9994 3.02384 12.6154 3.75584 12.2314 4.13984L12.2214 4.14984L11.096 5.21318L12.4427 8.76918C12.5321 8.98348 12.5573 9.21911 12.5154 9.4475C12.4736 9.67588 12.3663 9.8872 12.2067 10.0558L11.2754 11.0425C11.2241 11.0958 11.1617 11.1372 11.0926 11.1637C11.0236 11.1902 10.9495 11.2012 10.8758 11.1959C10.802 11.1906 10.7303 11.1692 10.6657 11.1331C10.6011 11.0971 10.5452 11.0472 10.502 10.9872L8.30005 7.85651L7.69205 8.43184C7.34538 8.77784 7.00671 9.09518 6.67738 9.33451C6.52805 9.44318 6.37071 9.54318 6.20605 9.62318L6.76871 11.0485C6.94205 11.4885 6.81538 11.9772 6.50471 12.3058L5.82338 13.0258C5.77386 13.077 5.71408 13.1172 5.64794 13.1436C5.58181 13.17 5.51084 13.1821 5.43968 13.1792C5.36853 13.1762 5.2988 13.1582 5.2351 13.1264C5.17139 13.0946 5.11514 13.0496 5.07005 12.9945L3.12205 10.5598L0.688046 8.61185C0.632924 8.56675 0.587971 8.5105 0.556141 8.44679C0.524311 8.38309 0.506325 8.31336 0.503366 8.24221C0.500406 8.17105 0.51254 8.10008 0.53897 8.03395C0.565399 7.96781 0.605526 7.90803 0.656712 7.85851L1.37671 7.17784C1.70471 6.86718 2.19405 6.73918 2.63338 6.91318L4.05938 7.47651C4.13938 7.31118 4.23938 7.15384 4.34738 7.00451C4.58671 6.67518 4.90405 6.33651 5.25071 5.98984L5.82538 5.38184L2.69471 3.17918C2.63477 3.13598 2.58504 3.08016 2.54904 3.01564C2.51304 2.95112 2.49165 2.87948 2.48637 2.80578C2.48109 2.73209 2.49206 2.65813 2.5185 2.58914C2.54494 2.52015 2.5862 2.45781 2.63938 2.40651L3.62605 1.47518C3.79476 1.31569 4.00612 1.20857 4.2345 1.16679C4.46287 1.12502 4.69847 1.1504 4.91271 1.23984L8.46871 2.58584L9.53205 1.46051L9.54205 1.45051C9.92671 1.06584 10.658 0.681844 11.3067 0.446511C11.6387 0.325844 11.984 0.230511 12.2894 0.195844C12.4407 0.179177 12.6027 0.174511 12.756 0.199178M10.2534 2.15318L8.96671 3.51451C8.89897 3.58636 8.81148 3.63654 8.71526 3.65872C8.61904 3.68091 8.5184 3.67411 8.42605 3.63918L4.55005 2.17184L4.53005 2.16384C4.49409 2.14817 4.45431 2.14341 4.41567 2.15017C4.37702 2.15692 4.34122 2.17489 4.31271 2.20184L3.77071 2.71384L6.87338 4.89651C7.11871 5.06984 7.15538 5.43051 6.94871 5.64918L5.97205 6.68184L5.96271 6.69118C5.62071 7.03318 5.34805 7.32718 5.15605 7.59118C4.96205 7.85984 4.88538 8.04984 4.87271 8.18518C4.8645 8.26195 4.83879 8.33582 4.79754 8.4011C4.7563 8.46637 4.70063 8.52131 4.63481 8.56169C4.569 8.60206 4.4948 8.6268 4.41792 8.634C4.34104 8.64119 4.26354 8.63064 4.19138 8.60318L2.26605 7.84251C2.09138 7.77318 1.86605 8.08984 1.76138 8.18918L3.79005 9.81318C3.81839 9.83695 3.8447 9.86304 3.86871 9.89118L5.49205 11.9198C5.59138 11.8152 5.90805 11.5898 5.83871 11.4152L5.07871 9.49051C5.05113 9.41836 5.04047 9.34084 5.04756 9.26393C5.05466 9.18701 5.07931 9.11275 5.11963 9.04686C5.15995 8.98098 5.21485 8.92522 5.28011 8.8839C5.34537 8.84258 5.41925 8.81678 5.49605 8.80851C5.63138 8.79584 5.82138 8.71918 6.08938 8.52451C6.35405 8.33318 6.64805 8.06051 6.98938 7.71851L7.00005 7.70918L8.03338 6.73251C8.08588 6.6841 8.14804 6.64737 8.21577 6.62474C8.2835 6.6021 8.35525 6.59408 8.42631 6.6012C8.49736 6.60832 8.5661 6.63041 8.62799 6.66603C8.68989 6.70165 8.74353 6.74998 8.78538 6.80784L10.968 9.91051L11.48 9.36851C11.507 9.34014 11.525 9.30449 11.5319 9.26597C11.5387 9.22746 11.5342 9.18778 11.5187 9.15184L11.51 9.13184L10.0434 5.25518C10.0085 5.16297 10.0017 5.06251 10.0237 4.96643C10.0458 4.87035 10.0958 4.78294 10.1674 4.71518L11.5287 3.42784C11.76 3.19384 12.0794 2.62784 12.2954 2.03318C12.394 1.76318 12.49 1.47184 12.4994 1.18184C12.2094 1.19118 11.918 1.28718 11.648 1.38584C11.054 1.60184 10.488 1.92184 10.2534 2.15318Z" fill="#BBBBBB"/>
</svg>
