<svg width="12" height="13" viewBox="0 0 12 13" fill="none" xmlns="http://www.w3.org/2000/svg">
<path d="M8.33333 8.01522H7.80667L7.62 7.83522C8.29597 7.05126 8.66746 6.05036 8.66667 5.01522C8.66667 4.15817 8.41252 3.32036 7.93637 2.60775C7.46022 1.89514 6.78344 1.33972 5.99163 1.01174C5.19982 0.683762 4.32853 0.597948 3.48794 0.765151C2.64736 0.932353 1.87523 1.34506 1.26921 1.95109C0.663178 2.55712 0.250468 3.32924 0.0832657 4.16983C-0.0839369 5.01041 0.00187757 5.8817 0.329857 6.67351C0.657837 7.46533 1.21325 8.1421 1.92586 8.61825C2.63848 9.09441 3.47628 9.34855 4.33333 9.34855C5.40667 9.34855 6.39333 8.95522 7.15333 8.30189L7.33333 8.48855V9.01522L10.6667 12.3419L11.66 11.3486L8.33333 8.01522ZM4.33333 8.01522C2.67334 8.01522 1.33334 6.67522 1.33334 5.01522C1.33334 3.35522 2.67334 2.01522 4.33333 2.01522C5.99333 2.01522 7.33333 3.35522 7.33333 5.01522C7.33333 6.67522 5.99333 8.01522 4.33333 8.01522Z" fill="white"/>
</svg>
