<svg width="16" height="17" viewBox="0 0 16 17" fill="none" xmlns="http://www.w3.org/2000/svg">
<g clip-path="url(#clip0_72_8170)">
<path d="M8 16.5C5.87827 16.5 3.84344 15.6571 2.34315 14.1569C0.842855 12.6566 0 10.6217 0 8.5C0 6.37827 0.842855 4.34344 2.34315 2.84315C3.84344 1.34285 5.87827 0.5 8 0.5C10.1217 0.5 12.1566 1.34285 13.6569 2.84315C15.1571 4.34344 16 6.37827 16 8.5C16 10.6217 15.1571 12.6566 13.6569 14.1569C12.1566 15.6571 10.1217 16.5 8 16.5ZM8 14.9C9.69739 14.9 11.3253 14.2257 12.5255 13.0255C13.7257 11.8253 14.4 10.1974 14.4 8.5C14.4 6.80261 13.7257 5.17475 12.5255 3.97452C11.3253 2.77428 9.69739 2.1 8 2.1C6.30261 2.1 4.67475 2.77428 3.47452 3.97452C2.27428 5.17475 1.6 6.80261 1.6 8.5C1.6 10.1974 2.27428 11.8253 3.47452 13.0255C4.67475 14.2257 6.30261 14.9 8 14.9ZM7.2 8.828V3.7H8.8V8.172L11.96 11.332L10.832 12.46L7.2 8.828Z" fill="black"/>
</g>
<defs>
<clipPath id="clip0_72_8170">
<rect width="16" height="16" fill="white" transform="translate(0 0.5)"/>
</clipPath>
</defs>
</svg>
