<svg width="14" height="13" viewBox="0 0 14 13" fill="none" xmlns="http://www.w3.org/2000/svg">
<path fill-rule="evenodd" clip-rule="evenodd" d="M0.5 6.5C0.5 2.91 3.41 0 7 0C10.59 0 13.5 2.91 13.5 6.5C13.5 10.09 10.59 13 7 13C3.41 13 0.5 10.09 0.5 6.5ZM4.5 4.87533C4.5 4.392 4.892 4 5.37533 4H8.62467C9.108 4 9.5 4.392 9.5 4.87533V8.12467C9.5 8.608 9.108 9 8.62533 9H5.374C5.25909 9.00018 5.14527 8.97767 5.03907 8.93378C4.93287 8.88988 4.83638 8.82546 4.75513 8.74421C4.67387 8.66295 4.60945 8.56646 4.56556 8.46026C4.52166 8.35406 4.49916 8.24025 4.49933 8.12533L4.5 4.87533Z" fill="black"/>
</svg>
