<svg width="16" height="17" viewBox="0 0 16 17" fill="none" xmlns="http://www.w3.org/2000/svg">
<path d="M2.66659 13.1667V5.83337H13.3333V8.02671C13.8133 8.17337 14.2666 8.38671 14.6666 8.67337V5.83337C14.6666 5.09337 14.0733 4.50004 13.3333 4.50004H10.6666V3.16671C10.6666 2.42671 10.0733 1.83337 9.33325 1.83337H6.66658C5.92659 1.83337 5.33325 2.42671 5.33325 3.16671V4.50004H2.66659C1.92659 4.50004 1.33992 5.09337 1.33992 5.83337L1.33325 13.1667C1.33325 13.9067 1.92659 14.5 2.66659 14.5H7.78659C7.58659 14.0867 7.45325 13.64 7.38658 13.1667H2.66659ZM6.66658 3.16671H9.33325V4.50004H6.66658V3.16671Z" fill="#121212"/>
<path d="M12.0001 9.16663C10.1601 9.16663 8.66675 10.66 8.66675 12.5C8.66675 14.34 10.1601 15.8333 12.0001 15.8333C13.8401 15.8333 15.3334 14.34 15.3334 12.5C15.3334 10.66 13.8401 9.16663 12.0001 9.16663ZM13.1001 14.0666L11.6667 12.6333V10.5H12.3334V12.36L13.5667 13.5933L13.1001 14.0666Z" fill="#121212"/>
</svg>
